# xmcd CD database file
#
# Track frame offsets:
#	150
#	46625
#	97307
#	152012
#	190985
#
# Disc length: 3111 seconds
#
# Revision: 0
# Processed by: cddbd v1.5.1PL2 Copyright (c) Steve Scherf et al.
# Submitted via: CDex 1.60beta1
#
DISCID=390c2505
DTITLE=Keith Jarrett - Fort Yawuh
DYEAR=1973
DGENRE=Jazz
TTITLE0=(If The)Misfits(Wear It)
TTITLE1=Fort Yawuh
TTITLE2=De Drums
TTITLE3=Still Life, Still Life
TTITLE4=Roads Traveled, Roads Veiled
EXTD=YEAR: 1973
EXTT0=
EXTT1=
EXTT2=
EXTT3=
EXTT4=
PLAYORDER=
